<svg width="219" height="219" viewBox="0 0 219 219" fill="none" xmlns="http://www.w3.org/2000/svg">
<g clip-path="url(#clip0_82_267)">
<mask id="path-1-inside-1_82_267" fill="white">
<path d="M92.2671 19.0288C93.954 16.2143 97.8044 15.6676 100.208 17.9013L104.19 21.6014C106.215 23.4839 109.365 23.4355 111.332 21.4916L115.198 17.6709C117.531 15.3643 121.397 15.7924 123.17 18.5537L126.106 23.1277C127.6 25.4548 130.662 26.1911 133.051 24.7975L137.745 22.0582C140.58 20.4045 144.217 21.7804 145.247 24.8958L146.954 30.0563C147.822 32.6819 150.605 34.1567 153.265 33.4008L158.494 31.9151C161.65 31.0182 164.831 33.2555 165.054 36.5292L165.424 41.952C165.612 44.711 167.941 46.8316 170.705 46.761L176.139 46.6222C179.419 46.5385 181.944 49.4966 181.346 52.7229L180.355 58.0673C179.851 60.7864 181.58 63.4195 184.275 64.0387L189.572 65.2555C192.77 65.9902 194.48 69.4832 193.099 72.4595L190.81 77.3896C189.646 79.8979 190.665 82.8782 193.121 84.1481L197.95 86.6442C200.865 88.151 201.652 91.9595 199.574 94.4987L196.131 98.7048C194.379 100.845 194.625 103.985 196.689 105.826L200.745 109.444C203.193 111.629 203.009 115.513 200.364 117.456L195.984 120.674C193.755 122.311 193.213 125.413 194.753 127.71L197.782 132.223C199.61 134.948 198.466 138.665 195.421 139.888L190.378 141.916C187.812 142.947 186.515 145.817 187.436 148.425L189.247 153.549C190.341 156.643 188.308 159.959 185.054 160.387L179.665 161.096C176.924 161.457 174.954 163.915 175.198 166.669L175.677 172.083C175.967 175.352 173.173 178.057 169.916 177.663L164.519 177.01C161.774 176.678 159.255 178.568 158.806 181.297L157.924 186.66C157.392 189.898 154.013 191.824 150.956 190.632L145.892 188.657C143.315 187.653 140.405 188.857 139.292 191.388L137.104 196.364C135.783 199.368 132.031 200.393 129.367 198.478L124.953 195.306C122.707 193.692 119.589 194.135 117.881 196.31L114.524 200.585C112.498 203.166 108.609 203.226 106.505 200.709L103.018 196.539C101.244 194.417 98.1136 194.07 95.9186 195.752L91.6043 199.058C88.9998 201.054 85.2185 200.145 83.8059 197.184L81.466 192.278C80.2755 189.782 77.3294 188.667 74.7851 189.75L69.7841 191.88C66.7651 193.165 63.3287 191.344 62.697 188.124L61.6507 182.791C61.1183 180.077 58.5419 178.265 55.8081 178.681L50.4347 179.5C47.1908 179.994 44.3153 177.376 44.5042 174.1L44.8172 168.674C44.9764 165.913 42.9316 163.517 40.1801 163.241L34.7719 162.697C31.5071 162.369 29.373 159.118 30.3706 155.992L32.0233 150.814C32.8641 148.18 31.4793 145.351 28.883 144.399L23.7799 142.527C20.6991 141.398 19.4406 137.718 21.1844 134.938L24.0728 130.334C25.5424 127.991 24.9047 124.907 22.6267 123.339L18.1492 120.257C15.4462 118.397 15.1424 114.52 17.5226 112.261L21.4654 108.52C23.4714 106.616 23.6208 103.47 21.8042 101.385L18.2338 97.2869C16.0783 94.8128 16.7483 90.9819 19.6154 89.3861L24.3648 86.7428C26.7811 85.3979 27.7083 82.3877 26.4673 79.9164L24.0282 75.059C22.5558 72.1266 24.1574 68.5826 27.3313 67.75L32.5888 66.3709C35.2637 65.6692 36.9103 62.9841 36.323 60.2819L35.1685 54.9704C34.4716 51.764 36.9042 48.7297 40.1854 48.7126L45.6208 48.6842C48.3861 48.6698 50.6488 46.4786 50.7519 43.7152L50.9546 38.2835C51.077 35.0045 54.1878 32.6705 57.3702 33.4699L62.6418 34.7942C65.3239 35.4679 68.0604 33.9082 68.8475 31.2572L70.3946 26.0467C71.3286 22.9011 74.9221 21.414 77.8057 22.9798L82.5824 25.5734C85.0126 26.893 88.0511 26.0629 89.4727 23.6909L92.2671 19.0288Z"/>
</mask>
<path d="M92.2671 19.0288C93.954 16.2143 97.8044 15.6676 100.208 17.9013L104.19 21.6014C106.215 23.4839 109.365 23.4355 111.332 21.4916L115.198 17.6709C117.531 15.3643 121.397 15.7924 123.17 18.5537L126.106 23.1277C127.6 25.4548 130.662 26.1911 133.051 24.7975L137.745 22.0582C140.58 20.4045 144.217 21.7804 145.247 24.8958L146.954 30.0563C147.822 32.6819 150.605 34.1567 153.265 33.4008L158.494 31.9151C161.65 31.0182 164.831 33.2555 165.054 36.5292L165.424 41.952C165.612 44.711 167.941 46.8316 170.705 46.761L176.139 46.6222C179.419 46.5385 181.944 49.4966 181.346 52.7229L180.355 58.0673C179.851 60.7864 181.58 63.4195 184.275 64.0387L189.572 65.2555C192.77 65.9902 194.48 69.4832 193.099 72.4595L190.81 77.3896C189.646 79.8979 190.665 82.8782 193.121 84.1481L197.95 86.6442C200.865 88.151 201.652 91.9595 199.574 94.4987L196.131 98.7048C194.379 100.845 194.625 103.985 196.689 105.826L200.745 109.444C203.193 111.629 203.009 115.513 200.364 117.456L195.984 120.674C193.755 122.311 193.213 125.413 194.753 127.71L197.782 132.223C199.61 134.948 198.466 138.665 195.421 139.888L190.378 141.916C187.812 142.947 186.515 145.817 187.436 148.425L189.247 153.549C190.341 156.643 188.308 159.959 185.054 160.387L179.665 161.096C176.924 161.457 174.954 163.915 175.198 166.669L175.677 172.083C175.967 175.352 173.173 178.057 169.916 177.663L164.519 177.01C161.774 176.678 159.255 178.568 158.806 181.297L157.924 186.66C157.392 189.898 154.013 191.824 150.956 190.632L145.892 188.657C143.315 187.653 140.405 188.857 139.292 191.388L137.104 196.364C135.783 199.368 132.031 200.393 129.367 198.478L124.953 195.306C122.707 193.692 119.589 194.135 117.881 196.31L114.524 200.585C112.498 203.166 108.609 203.226 106.505 200.709L103.018 196.539C101.244 194.417 98.1136 194.07 95.9186 195.752L91.6043 199.058C88.9998 201.054 85.2185 200.145 83.8059 197.184L81.466 192.278C80.2755 189.782 77.3294 188.667 74.7851 189.75L69.7841 191.88C66.7651 193.165 63.3287 191.344 62.697 188.124L61.6507 182.791C61.1183 180.077 58.5419 178.265 55.8081 178.681L50.4347 179.5C47.1908 179.994 44.3153 177.376 44.5042 174.1L44.8172 168.674C44.9764 165.913 42.9316 163.517 40.1801 163.241L34.7719 162.697C31.5071 162.369 29.373 159.118 30.3706 155.992L32.0233 150.814C32.8641 148.18 31.4793 145.351 28.883 144.399L23.7799 142.527C20.6991 141.398 19.4406 137.718 21.1844 134.938L24.0728 130.334C25.5424 127.991 24.9047 124.907 22.6267 123.339L18.1492 120.257C15.4462 118.397 15.1424 114.52 17.5226 112.261L21.4654 108.52C23.4714 106.616 23.6208 103.47 21.8042 101.385L18.2338 97.2869C16.0783 94.8128 16.7483 90.9819 19.6154 89.3861L24.3648 86.7428C26.7811 85.3979 27.7083 82.3877 26.4673 79.9164L24.0282 75.059C22.5558 72.1266 24.1574 68.5826 27.3313 67.75L32.5888 66.3709C35.2637 65.6692 36.9103 62.9841 36.323 60.2819L35.1685 54.9704C34.4716 51.764 36.9042 48.7297 40.1854 48.7126L45.6208 48.6842C48.3861 48.6698 50.6488 46.4786 50.7519 43.7152L50.9546 38.2835C51.077 35.0045 54.1878 32.6705 57.3702 33.4699L62.6418 34.7942C65.3239 35.4679 68.0604 33.9082 68.8475 31.2572L70.3946 26.0467C71.3286 22.9011 74.9221 21.414 77.8057 22.9798L82.5824 25.5734C85.0126 26.893 88.0511 26.0629 89.4727 23.6909L92.2671 19.0288Z" fill="white" stroke="black" stroke-width="2" mask="url(#path-1-inside-1_82_267)"/>
<mask id="path-2-inside-2_82_267" fill="white">
<path d="M93.4866 27.6194C95.1735 24.8049 99.0239 24.2582 101.428 26.4919L104.306 29.1666C106.332 31.0491 109.481 31.0007 111.448 29.0568L114.242 26.2949C116.576 23.9884 120.442 24.4164 122.214 27.1777L124.337 30.4842C125.831 32.8113 128.893 33.5476 131.282 32.154L134.676 30.1738C137.51 28.5201 141.147 29.896 142.177 33.0114L143.411 36.7418C144.279 39.3674 147.063 40.8422 149.723 40.0863L153.502 39.0123C156.658 38.1154 159.84 40.3527 160.063 43.6264L160.33 47.5465C160.518 50.3054 162.847 52.4261 165.611 52.3555L169.539 52.2551C172.819 52.1714 175.344 55.1295 174.746 58.3558L174.03 62.2192C173.526 64.9382 175.254 67.5714 177.95 68.1905L181.779 69.0702C184.977 69.8048 186.687 73.2979 185.305 76.2741L183.651 79.838C182.486 82.3463 183.506 85.3266 185.962 86.5965L189.453 88.4009C192.367 89.9077 193.155 93.7162 191.076 96.2554L188.588 99.2959C186.836 101.436 187.082 104.576 189.146 106.417L192.078 109.033C194.526 111.217 194.342 115.102 191.697 117.044L188.531 119.37C186.302 121.007 185.759 124.11 187.3 126.406L189.49 129.669C191.318 132.394 190.173 136.11 187.129 137.334L183.483 138.8C180.917 139.831 179.62 142.701 180.541 145.309L181.851 149.013C182.944 152.107 180.911 155.422 177.658 155.851L173.762 156.363C171.02 156.724 169.05 159.182 169.294 161.936L169.641 165.85C169.93 169.119 167.137 171.824 163.879 171.43L159.978 170.958C157.233 170.626 154.714 172.516 154.265 175.245L153.628 179.122C153.095 182.36 149.716 184.285 146.659 183.093L142.999 181.666C140.422 180.661 137.512 181.866 136.398 184.397L134.817 187.994C133.496 190.998 129.744 192.023 127.08 190.108L123.889 187.815C121.643 186.201 118.525 186.644 116.817 188.819L114.391 191.909C112.364 194.49 108.476 194.55 106.371 192.033L103.851 189.018C102.077 186.897 98.9462 186.55 96.7513 188.232L93.6325 190.622C91.028 192.618 87.2467 191.709 85.8341 188.747L84.1426 185.201C82.9521 182.705 80.0061 181.59 77.4617 182.674L73.8466 184.213C70.8276 185.498 67.3912 183.677 66.7595 180.457L66.0031 176.602C65.4708 173.888 62.8944 172.076 60.1606 172.493L56.2763 173.084C53.0324 173.579 50.1568 170.96 50.3458 167.684L50.572 163.762C50.7313 161.001 48.6864 158.605 45.9349 158.329L42.0255 157.936C38.7606 157.608 36.6265 154.357 37.6242 151.231L38.8189 147.488C39.6597 144.853 38.2749 142.024 35.6786 141.072L31.9896 139.72C28.9089 138.59 27.6504 134.91 29.3941 132.13L31.4821 128.802C32.9517 126.459 32.314 123.375 30.036 121.807L26.7993 119.58C24.0963 117.719 23.7925 113.842 26.1727 111.583L29.0229 108.879C31.0288 106.975 31.1782 103.829 29.3617 101.744L26.7807 98.7815C24.6253 96.3074 25.2952 92.4765 28.1623 90.8808L31.5955 88.9699C34.0119 87.6251 34.939 84.6149 33.6981 82.1436L31.9349 78.6322C30.4625 75.6999 32.0641 72.1559 35.238 71.3233L39.0385 70.3263C41.7134 69.6246 43.3601 66.9396 42.7727 64.2373L41.9382 60.3978C41.2412 57.1914 43.6738 54.157 46.9551 54.1399L50.8842 54.1194C53.6495 54.105 55.9122 51.9138 56.0153 49.1503L56.1618 45.2239C56.2842 41.9449 59.395 39.6109 62.5774 40.4103L66.3882 41.3676C69.0702 42.0413 71.8067 40.4817 72.5938 37.8307L73.7122 34.0641C74.6462 30.9185 78.2397 29.4314 81.1234 30.9972L84.5763 32.8721C87.0065 34.1916 90.045 33.3615 91.4666 30.9896L93.4866 27.6194Z"/>
</mask>
<path d="M93.4866 27.6194C95.1735 24.8049 99.0239 24.2582 101.428 26.4919L104.306 29.1666C106.332 31.0491 109.481 31.0007 111.448 29.0568L114.242 26.2949C116.576 23.9884 120.442 24.4164 122.214 27.1777L124.337 30.4842C125.831 32.8113 128.893 33.5476 131.282 32.154L134.676 30.1738C137.51 28.5201 141.147 29.896 142.177 33.0114L143.411 36.7418C144.279 39.3674 147.063 40.8422 149.723 40.0863L153.502 39.0123C156.658 38.1154 159.84 40.3527 160.063 43.6264L160.33 47.5465C160.518 50.3054 162.847 52.4261 165.611 52.3555L169.539 52.2551C172.819 52.1714 175.344 55.1295 174.746 58.3558L174.03 62.2192C173.526 64.9382 175.254 67.5714 177.95 68.1905L181.779 69.0702C184.977 69.8048 186.687 73.2979 185.305 76.2741L183.651 79.838C182.486 82.3463 183.506 85.3266 185.962 86.5965L189.453 88.4009C192.367 89.9077 193.155 93.7162 191.076 96.2554L188.588 99.2959C186.836 101.436 187.082 104.576 189.146 106.417L192.078 109.033C194.526 111.217 194.342 115.102 191.697 117.044L188.531 119.37C186.302 121.007 185.759 124.11 187.3 126.406L189.49 129.669C191.318 132.394 190.173 136.11 187.129 137.334L183.483 138.8C180.917 139.831 179.62 142.701 180.541 145.309L181.851 149.013C182.944 152.107 180.911 155.422 177.658 155.851L173.762 156.363C171.02 156.724 169.05 159.182 169.294 161.936L169.641 165.85C169.93 169.119 167.137 171.824 163.879 171.43L159.978 170.958C157.233 170.626 154.714 172.516 154.265 175.245L153.628 179.122C153.095 182.36 149.716 184.285 146.659 183.093L142.999 181.666C140.422 180.661 137.512 181.866 136.398 184.397L134.817 187.994C133.496 190.998 129.744 192.023 127.08 190.108L123.889 187.815C121.643 186.201 118.525 186.644 116.817 188.819L114.391 191.909C112.364 194.49 108.476 194.55 106.371 192.033L103.851 189.018C102.077 186.897 98.9462 186.55 96.7513 188.232L93.6325 190.622C91.028 192.618 87.2467 191.709 85.8341 188.747L84.1426 185.201C82.9521 182.705 80.0061 181.59 77.4617 182.674L73.8466 184.213C70.8276 185.498 67.3912 183.677 66.7595 180.457L66.0031 176.602C65.4708 173.888 62.8944 172.076 60.1606 172.493L56.2763 173.084C53.0324 173.579 50.1568 170.96 50.3458 167.684L50.572 163.762C50.7313 161.001 48.6864 158.605 45.9349 158.329L42.0255 157.936C38.7606 157.608 36.6265 154.357 37.6242 151.231L38.8189 147.488C39.6597 144.853 38.2749 142.024 35.6786 141.072L31.9896 139.72C28.9089 138.59 27.6504 134.91 29.3941 132.13L31.4821 128.802C32.9517 126.459 32.314 123.375 30.036 121.807L26.7993 119.58C24.0963 117.719 23.7925 113.842 26.1727 111.583L29.0229 108.879C31.0288 106.975 31.1782 103.829 29.3617 101.744L26.7807 98.7815C24.6253 96.3074 25.2952 92.4765 28.1623 90.8808L31.5955 88.9699C34.0119 87.6251 34.939 84.6149 33.6981 82.1436L31.9349 78.6322C30.4625 75.6999 32.0641 72.1559 35.238 71.3233L39.0385 70.3263C41.7134 69.6246 43.3601 66.9396 42.7727 64.2373L41.9382 60.3978C41.2412 57.1914 43.6738 54.157 46.9551 54.1399L50.8842 54.1194C53.6495 54.105 55.9122 51.9138 56.0153 49.1503L56.1618 45.2239C56.2842 41.9449 59.395 39.6109 62.5774 40.4103L66.3882 41.3676C69.0702 42.0413 71.8067 40.4817 72.5938 37.8307L73.7122 34.0641C74.6462 30.9185 78.2397 29.4314 81.1234 30.9972L84.5763 32.8721C87.0065 34.1916 90.045 33.3615 91.4666 30.9896L93.4866 27.6194Z" fill="#25FD1E" stroke="black" stroke-width="1.7898" mask="url(#path-2-inside-2_82_267)"/>
<circle cx="109.107" cy="109.107" r="70.9177" transform="rotate(-8.08087 109.107 109.107)" fill="#0123FF" stroke="black" stroke-width="0.894899"/>
<g clip-path="url(#clip1_82_267)">
<circle cx="109.107" cy="109.107" r="45.1095" transform="rotate(-8.08087 109.107 109.107)" fill="#FFEA01" stroke="black" stroke-width="0.894899"/>
<path d="M143.344 106.487C143.998 115.025 141.437 123.499 136.165 130.247C130.893 136.995 123.29 141.529 114.847 142.961C106.405 144.393 97.732 142.618 90.5302 137.985C83.3285 133.353 78.1176 126.196 75.9198 117.92" stroke="black" stroke-width="0.894899"/>
<ellipse cx="142.813" cy="105.478" rx="7.00618" ry="5.54712" transform="rotate(-8.08087 142.813 105.478)" fill="#FFEA01"/>
<path fill-rule="evenodd" clip-rule="evenodd" d="M136.063 106.33C137.03 109.246 140.218 111.124 143.669 110.634C147.12 110.144 149.659 107.453 149.775 104.383L150.381 104.297C150.301 107.669 147.528 110.639 143.746 111.176C139.964 111.713 136.473 109.632 135.458 106.416L136.063 106.33Z" fill="black"/>
<path fill-rule="evenodd" clip-rule="evenodd" d="M96.8116 116.564C100.89 115.985 103.335 109.454 102.274 101.978C101.212 94.5014 97.0456 88.9098 92.9675 89.4888C89.8821 89.9269 87.7312 93.7715 87.3267 98.8552L91.9504 104.756L87.7211 105.357C89.0503 112.179 92.9702 117.109 96.8116 116.564Z" fill="#000B1F"/>
<path fill-rule="evenodd" clip-rule="evenodd" d="M123.101 112.831C127.179 112.252 129.624 105.722 128.563 98.2453C127.501 90.7688 123.335 85.1773 119.257 85.7563C116.171 86.1944 114.02 90.039 113.616 95.1226L118.24 101.024L114.01 101.624C115.34 108.447 119.259 113.377 123.101 112.831Z" fill="#000B1F"/>
</g>
<g clip-path="url(#clip2_82_267)">
<path d="M58.6531 110.474L59.5095 105.093L55.7572 104.496L54.2354 101.97L60.5627 98.4746L61.6027 91.939L51.7128 97.7638L46.8344 89.6311L45.7582 96.3935L50.1559 103.562L50.1494 103.603L44.7477 102.743L43.8914 108.125L58.6531 110.474Z" fill="white"/>
<path d="M61.827 92.4399L69.477 78.4209L66.5083 76.8009L61.3883 86.1836L58.951 84.8536L63.571 76.3872L61.0238 74.9972L56.4037 83.4636L54.2047 82.2636L59.2247 73.0641L56.256 71.4441L48.7059 85.2799L61.827 92.4399Z" fill="white"/>
<path d="M70.5984 76.642L82.4934 65.9853L80.2367 63.4663L72.2756 70.5987L70.4228 68.5306L77.6065 62.0948L75.6702 59.9335L68.4865 66.3693L66.8149 64.5035L74.6205 57.5104L72.3638 54.9915L60.6243 65.5089L70.5984 76.642Z" fill="white"/>
<path d="M84.4417 65.4056L89.4427 63.2427L87.6278 59.0464L93.6444 56.4442C97.5533 54.7537 98.9975 52.1502 97.7073 49.1144C96.3648 46.0103 93.4538 45.2223 89.564 46.9046L78.5081 51.6862L84.4417 65.4056ZM86.4096 56.2297L84.7273 52.34L89.1152 50.4422C90.8589 49.6881 92.1153 49.9636 92.654 51.209C93.2009 52.4737 92.5412 53.5778 90.7975 54.332L86.4096 56.2297Z" fill="white"/>
<path d="M111.948 60.3699C117.431 60.6459 121.082 58.7184 121.216 55.6315C121.353 52.921 119.254 51.4358 114.234 50.6606L111.476 50.2291C109.567 49.945 108.751 49.5485 108.779 48.9856C108.84 48.1943 110.429 47.7726 112.556 47.8588C114.851 47.9534 117.277 48.7652 118.848 49.9313L120.528 46.8804C118.753 45.5996 115.83 44.7 112.682 44.5415C107.365 44.274 103.646 45.9053 103.484 49.1163C103.351 51.7642 105.307 53.1796 109.994 53.9171L112.731 54.3684C114.991 54.7329 115.93 55.1774 115.897 55.8237C115.858 56.5952 114.499 57.0284 112.393 56.9224C109.537 56.7787 106.355 55.6152 104.694 54.152L102.655 57.2893C104.579 58.933 108.362 60.1894 111.948 60.3699Z" fill="#25FD1E"/>
<path d="M120.811 59.7121L125.381 62.0549L129.657 53.7135L129.695 53.7325L129.728 64.2833L133.871 66.4071L142.309 60.1989L142.346 60.218L138.07 68.5594L142.64 70.9021L149.459 57.6005L143.105 54.3435L133.925 61.039L133.888 61.02L133.909 49.6294L127.63 46.4105L120.811 59.7121Z" fill="#25FD1E"/>
<path d="M142.222 72.4397L146.05 76.2584L156.607 65.6761L152.779 61.8574L142.222 72.4397Z" fill="#25FD1E"/>
<path d="M147.22 77.474L155.077 89.6965L158.431 87.5404L153.521 79.9013L162.74 73.9748L159.794 69.3913L147.22 77.474Z" fill="#25FD1E"/>
<path d="M155.72 90.8308L159.495 106.349L162.781 105.549L160.255 95.1636L162.953 94.5073L165.232 103.879L168.052 103.193L165.772 93.8215L168.206 93.2293L170.683 103.412L173.97 102.613L170.244 87.2979L155.72 90.8308Z" fill="#25FD1E"/>
<path d="M159.306 109.562L156.857 125.343L160.199 125.862L161.838 115.3L164.582 115.726L163.102 125.256L165.97 125.702L167.449 116.171L169.925 116.555L168.317 126.911L171.659 127.43L174.077 111.855L159.306 109.562Z" fill="white"/>
<path d="M154.049 130.762L151.08 136.11L160.55 149.846L163.296 144.9L156.564 135.693L156.585 135.657L167.968 136.486L170.705 131.558L154.049 130.762Z" fill="white"/>
<path d="M147.395 141.965L135.324 152.422L137.538 154.979L145.617 147.98L147.435 150.078L140.145 156.394L142.045 158.587L149.335 152.272L150.975 154.165L143.054 161.027L145.269 163.583L157.182 153.263L147.395 141.965Z" fill="white"/>
<path d="M120.102 157.938C118.812 158.422 117.464 159.464 116.952 160.415L118.583 162.144C118.714 161.782 119.117 161.43 119.45 161.305C119.997 161.099 120.417 161.209 120.803 161.465L122.365 162.596C122.888 162.979 123.458 163.189 123.993 163.188L124 163.208C121.624 164.658 120.689 166.682 121.475 168.773C122.533 171.587 125.292 172.402 129.044 170.992L140.808 166.571L135.551 152.579L130.45 154.495L132.198 159.146L129.208 160.27C128.289 160.615 127.283 160.547 126.388 159.947L124.958 158.812C123.723 157.96 122.213 157.145 120.102 157.938ZM133.277 162.019L134.577 165.478L129.437 167.409C127.972 167.96 126.869 167.638 126.458 166.544C126.054 165.469 126.672 164.501 128.138 163.95L133.277 162.019Z" fill="white"/>
<path d="M110.888 159.167L105.44 159.061L105.341 164.154L97.9906 173.866L103.793 173.979L107.965 167.754L107.986 167.755L112.121 174.141L117.861 174.253L110.789 164.26L110.888 159.167Z" fill="white"/>
<path d="M98.7936 159.036L89.0043 154.903C83.6577 152.645 79.6373 153.848 77.7696 158.272C75.9019 162.695 77.8436 166.416 83.1902 168.673L92.9795 172.806L98.7936 159.036ZM92.4713 160.378L89.5236 167.359L85.3117 165.581C82.6576 164.46 81.6935 162.557 82.6354 160.326C83.5774 158.095 85.6053 157.479 88.2594 158.599L92.4713 160.378Z" fill="white"/>
<path d="M81.4493 152.087L77.4733 148.092L74.8137 149.119L69.5565 143.836L70.5815 141.167L66.5908 137.157L61.1351 152.865L65.597 157.348L81.4493 152.087ZM71.8874 150.529L65.8147 152.802L65.7853 152.773L68.1175 146.741L71.8874 150.529Z" fill="white"/>
<path d="M64.5121 131.538L62.3678 126.529L57.685 128.534L45.8085 125.829L48.0923 131.164L55.4821 132.406L55.4903 132.425L51.3703 138.822L53.6295 144.099L59.8292 133.543L64.5121 131.538Z" fill="white"/>
<path d="M60.3424 117.628C60.087 116.062 58.9337 115.087 57.5944 115.305C56.2346 115.527 55.4716 116.815 55.727 118.381C55.9825 119.947 57.1117 120.905 58.4716 120.683C59.8109 120.464 60.5978 119.194 60.3424 117.628Z" fill="white"/>
</g>
</g>
<defs>
<clipPath id="clip0_82_267">
<rect width="193" height="193" fill="white" transform="translate(0 27.1301) rotate(-8.08087)"/>
</clipPath>
<clipPath id="clip1_82_267">
<rect width="91.114" height="91.114" fill="white" transform="translate(57.5984 70.4062) rotate(-8.08087)"/>
</clipPath>
<clipPath id="clip2_82_267">
<rect width="130.172" height="131.803" fill="white" transform="translate(35.444 52.8295) rotate(-8.08087)"/>
</clipPath>
</defs>
</svg>
